<svg width="11" height="10" viewBox="0 0 11 10" fill="none" xmlns="http://www.w3.org/2000/svg">
<path fill-rule="evenodd" clip-rule="evenodd" d="M8.71233 1.2125C8.88727 1.03909 9.12343 0.941494 9.36975 0.940815C9.61607 0.940135 9.85276 1.03643 10.0286 1.20887C10.2045 1.38131 10.3055 1.61605 10.3097 1.86233C10.3139 2.10862 10.221 2.34666 10.0511 2.525L5.06108 8.7625C4.97532 8.85487 4.87181 8.929 4.75675 8.98046C4.64168 9.03191 4.51742 9.05964 4.3914 9.06197C4.26537 9.0643 4.14017 9.0412 4.02328 8.99404C3.90639 8.94688 3.8002 8.87663 3.71108 8.7875L0.404831 5.48C0.312722 5.39417 0.238845 5.29067 0.187605 5.17567C0.136365 5.06067 0.108812 4.93653 0.106591 4.81065C0.10437 4.68477 0.127526 4.55974 0.174678 4.443C0.221829 4.32627 0.29201 4.22023 0.381033 4.1312C0.470057 4.04218 0.576099 3.972 0.692834 3.92485C0.809569 3.87769 0.934606 3.85454 1.06048 3.85676C1.18636 3.85898 1.3105 3.88653 1.4255 3.93777C1.5405 3.98901 1.644 4.06289 1.72983 4.155L4.34733 6.77125L8.68858 1.24C8.69633 1.23032 8.70468 1.22113 8.71358 1.2125H8.71233Z" fill="white"/>
</svg>
