<svg width="16" height="9" viewBox="0 0 16 9" fill="none" xmlns="http://www.w3.org/2000/svg">
<path d="M7.99979 7.99997C7.76614 8.00043 7.5397 7.91905 7.35979 7.76997L1.35979 2.76997C1.15557 2.60023 1.02715 2.35632 1.00277 2.09189C0.978387 1.82747 1.06005 1.56419 1.22979 1.35997C1.39953 1.15575 1.64344 1.02733 1.90786 1.00295C2.17229 0.97857 2.43557 1.06023 2.63979 1.22997L7.99979 5.70997L13.3598 1.38997C13.4621 1.3069 13.5798 1.24487 13.7061 1.20744C13.8325 1.17001 13.9649 1.15792 14.096 1.17186C14.227 1.18579 14.354 1.22549 14.4696 1.28866C14.5853 1.35184 14.6873 1.43724 14.7698 1.53997C14.8614 1.64279 14.9307 1.76342 14.9735 1.89429C15.0163 2.02517 15.0316 2.16347 15.0185 2.30053C15.0053 2.43759 14.964 2.57046 14.8971 2.69082C14.8303 2.81118 14.7392 2.91643 14.6298 2.99997L8.62979 7.82997C8.4447 7.95549 8.22289 8.01534 7.99979 7.99997Z" fill="white"/>
</svg>
