<svg width="16" height="19" viewBox="0 0 16 19" fill="none" xmlns="http://www.w3.org/2000/svg">
<path d="M7.9998 0.399994C8.95458 0.399994 9.87026 0.779279 10.5454 1.45441C11.2205 2.12954 11.5998 3.04521 11.5998 3.99999V5.19999H12.7998C13.4363 5.19999 14.0468 5.45285 14.4969 5.90294C14.9469 6.35303 15.1998 6.96348 15.1998 7.59999V16C15.1998 16.6365 14.9469 17.247 14.4969 17.6971C14.0468 18.1471 13.4363 18.4 12.7998 18.4H3.1998C2.56329 18.4 1.95284 18.1471 1.50275 17.6971C1.05266 17.247 0.799805 16.6365 0.799805 16V7.59999C0.799805 6.96348 1.05266 6.35303 1.50275 5.90294C1.95284 5.45285 2.56329 5.19999 3.1998 5.19999H4.3998V3.99999C4.3998 3.04521 4.77909 2.12954 5.45422 1.45441C6.12935 0.779279 7.04503 0.399994 7.9998 0.399994ZM7.9998 10.6C7.68155 10.6 7.37632 10.7264 7.15128 10.9515C6.92623 11.1765 6.7998 11.4817 6.7998 11.8C6.7998 12.1183 6.92623 12.4235 7.15128 12.6485C7.37632 12.8736 7.68155 13 7.9998 13C8.31806 13 8.62329 12.8736 8.84833 12.6485C9.07338 12.4235 9.19981 12.1183 9.19981 11.8C9.19981 11.4817 9.07338 11.1765 8.84833 10.9515C8.62329 10.7264 8.31806 10.6 7.9998 10.6ZM7.9998 2.79999C7.68155 2.79999 7.37632 2.92642 7.15128 3.15147C6.92623 3.37651 6.7998 3.68173 6.7998 3.99999V5.19999H9.19981V3.99999C9.19981 3.68173 9.07338 3.37651 8.84833 3.15147C8.62329 2.92642 8.31806 2.79999 7.9998 2.79999Z" fill="#E9E9E9"/>
</svg>
