<svg width="24" height="24" viewBox="0 0 24 24" fill="none" xmlns="http://www.w3.org/2000/svg">
<path d="M11.9057 14.625C12.6018 14.625 13.2695 14.3484 13.7618 13.8562C14.2541 13.3639 14.5307 12.6962 14.5307 12C14.5307 11.9231 14.5271 11.847 14.5206 11.7717L11.6774 14.6149C11.7526 14.6215 11.8285 14.625 11.9057 14.625ZM20.5944 3.88032L19.5932 2.88001C19.558 2.84487 19.5103 2.82513 19.4606 2.82513C19.4109 2.82513 19.3632 2.84487 19.3281 2.88001L16.7659 5.4429C15.3525 4.72055 13.7636 4.35938 11.9994 4.35938C7.49472 4.35938 4.13378 6.70548 1.91659 11.3977C1.82747 11.5864 1.78125 11.7925 1.78125 12.0012C1.78125 12.2099 1.82747 12.416 1.91659 12.6047C2.80253 14.4708 3.86932 15.9665 5.11698 17.0918L2.63753 19.5703C2.60239 19.6055 2.58265 19.6532 2.58265 19.7029C2.58265 19.7526 2.60239 19.8002 2.63753 19.8354L3.63807 20.8359C3.67323 20.8711 3.72091 20.8908 3.77061 20.8908C3.82032 20.8908 3.86799 20.8711 3.90315 20.8359L20.5944 4.14563C20.6118 4.12822 20.6257 4.10754 20.6351 4.08478C20.6445 4.06202 20.6494 4.03762 20.6494 4.01298C20.6494 3.98834 20.6445 3.96394 20.6351 3.94118C20.6257 3.91841 20.6118 3.89773 20.5944 3.88032ZM7.78065 12C7.78059 11.2875 7.96507 10.5872 8.31612 9.96717C8.66718 9.34717 9.17284 8.82867 9.78384 8.46218C10.3948 8.0957 11.0904 7.89372 11.8026 7.87592C12.5149 7.85812 13.2196 8.02512 13.8482 8.36063L12.7086 9.50016C12.2491 9.35301 11.7578 9.33529 11.2889 9.44894C10.8199 9.56259 10.3913 9.80323 10.0501 10.1444C9.70887 10.4857 9.46824 10.9143 9.35459 11.3832C9.24094 11.8522 9.25866 12.3434 9.40581 12.803L8.26628 13.9425C7.9465 13.345 7.77966 12.6777 7.78065 12Z" fill="#E9E9E9"/>
<path d="M22.083 11.3953C21.258 9.65785 20.2761 8.24105 19.1372 7.14496L15.7589 10.5235C16.0437 11.2679 16.1068 12.0788 15.9406 12.8583C15.7745 13.6378 15.3862 14.3526 14.8226 14.9161C14.259 15.4797 13.5443 15.868 12.7648 16.0342C11.9853 16.2004 11.1743 16.1372 10.4299 15.8525L7.56445 18.7179C8.89383 19.3331 10.3724 19.6407 12.0002 19.6407C16.5049 19.6407 19.8659 17.2946 22.083 12.6024C22.1722 12.4137 22.2184 12.2076 22.2184 11.9989C22.2184 11.7902 22.1722 11.5841 22.083 11.3953Z" fill="#E9E9E9"/>
</svg>
